<?xml version="1.0" encoding="utf-8"?>
<!-- Generator: Adobe Illustrator 23.0.2, SVG Export Plug-In . SVG Version: 6.00 Build 0)  -->
<svg version="1.1" id="Ebene_1" xmlns="http://www.w3.org/2000/svg" xmlns:xlink="http://www.w3.org/1999/xlink" x="0px" y="0px"
	 width="24px" height="24px" viewBox="0 0 24 24" style="enable-background:new 0 0 24 24;" xml:space="preserve">
<style type="text/css">
	.st0{fill:none;}
	.st1{fill:#FFFFFF;}
	.st2{fill:#60DA3C;}
	.st3{fill:#898A89;}
</style>
<path class="st0" d="M24,24H0V0h24V24z"/>
<circle class="st1" cx="12" cy="12" r="11.8"/>
<path class="st2" d="M16.3,11.9c0.1-1.6-0.6-3-1.8-4.1c-0.4-0.3-0.7-0.3-1,0l-1,0.8c-0.3,0.2-0.3,0.6,0,0.8c0.7,0.7,1.1,1.5,1.1,2.5
	c0,0.9-0.6,1.8-1.3,2.4c-0.3,0.2-0.3,0.6,0,0.8l0.9,0.8c0.3,0.2,0.7,0.3,1,0C15.4,14.8,16.2,13.5,16.3,11.9 M22,11.8
	c0-2.9-1.2-5.5-3.2-7.4c0,0-0.3-0.3-0.5-0.3s-0.3,0-0.5,0.2c0,0-1.1,0.9-1.4,1.1c-0.1,0.1-0.3,0.2-0.2,0.4c0,0.1,0.3,0.3,0.5,0.5
	c1.6,1.3,2.5,3.3,2.5,5.4c0,2.3-1.1,4.4-2.9,5.7c-0.1,0.1-0.3,0.2-0.3,0.2c-0.1,0.1-0.2,0.2-0.2,0.4c0,0.2,0.1,0.3,0.1,0.3l1.3,1.2
	l0,0c0.1,0.1,0.3,0.2,0.5,0.2s0.3-0.1,0.5-0.2l0,0C20.6,17.8,22,14.9,22,11.8"/>
<path class="st3" d="M15.1,19.4c-1,0.4-2,0.6-3.1,0.6c-4.4,0-8-3.6-8-8s3.6-8,8-8c1.2,0,2.3,0.3,3.4,0.7h0.1l1.7-1.4
	C15.6,2.5,13.9,2,12,2C6.5,2,2,6.5,2,12s4.5,10,10,10c1.7,0,3.3-0.4,4.7-1.2L15.1,19.4z"/>
</svg>
