<?xml version="1.0" encoding="utf-8"?>
<!-- Generator: Adobe Illustrator 23.0.2, SVG Export Plug-In . SVG Version: 6.00 Build 0)  -->
<svg fill="#fff" version="1.1" id="Ebene_1" xmlns="http://www.w3.org/2000/svg" xmlns:xlink="http://www.w3.org/1999/xlink" x="0px" y="0px"
	 width="24px" height="24px" viewBox="0 0 24 24" style="enable-background:new 0 0 24 24;" xml:space="preserve">
<style type="text/css">
	.st0{fill:none;}
</style>
<path class="st0" d="M24,24H0V0h24V24z"/>
<path d="M4.4,11.8c-0.1,0.5-0.2,1.2-0.2,1.7c0,5.1,4.3,9.4,9.4,9.4c1.6,0,3.1-0.3,4.4-1.1l-1.5-1.3c-1,0.3-1.9,0.5-2.9,0.5
	c-4.1,0-7.5-3.4-7.5-7.5c0-0.7,0.1-1.2,0.2-1.7C6.2,11.8,4.4,11.8,4.4,11.8z M14,11.2c0.7,0.7,1,1.4,1,2.3c0,0.9-0.5,1.6-1.2,2.3
	c-0.3,0.2-0.3,0.5,0,0.8l0.9,0.8c0.3,0.2,0.7,0.3,1,0c1.1-1,1.9-2.3,2-3.7c0.1-1.5-0.5-2.8-1.6-3.8c-0.3-0.3-0.4-0.4-1,0l-1,0.7
	C13.7,10.6,13.7,11,14,11.2 M6.6,6.6h3.3V4.4H6.6V1.1H4.4v3.3H1.1v2.2h3.3v3.3h2.2V6.6z M16.8,6.8l1.5-1.3c-1.5-1-2.9-1.3-4.9-1.2
	c-0.5,0-1.1,0.1-1.6,0.2v1.9c0.5-0.1,1.1-0.2,1.6-0.2C14.7,6.2,15.6,6.4,16.8,6.8L16.8,6.8z M22.9,13.5c0-2.7-1.1-5.1-2.9-7
	c0,0-0.3-0.3-0.4-0.3c-0.2,0-0.3,0-0.5,0.2c0,0-0.8,0.5-1.2,1c-0.1,0.1-0.3,0.2-0.2,0.4c0.1,0.1,0.3,0.3,0.4,0.4
	c1.5,1.2,2.3,3.1,2.3,5c0,2.2-1,4.1-2.7,5.3c-0.2,0.1-0.3,0.2-0.3,0.2c-0.2,0.1-0.2,0.2-0.2,0.3c0,0.2,0.1,0.3,0.1,0.3l1.2,1.1
	c0.1,0.1,0.3,0.2,0.4,0.2c0.2,0,0.3-0.1,0.5-0.2C21.7,18.8,22.9,16.3,22.9,13.5"/>
</svg>
