<?xml version="1.0" encoding="utf-8"?>
<!-- Generator: Adobe Illustrator 23.0.1, SVG Export Plug-In . SVG Version: 6.00 Build 0)  -->
<svg version="1.1" id="Ebene_1" xmlns="http://www.w3.org/2000/svg" xmlns:xlink="http://www.w3.org/1999/xlink" x="0px" y="0px"
	 width="24px" height="24px" viewBox="0 0 24 24" style="enable-background:new 0 0 24 24;" xml:space="preserve">
<style type="text/css">
	.st0{fill:none;}
</style>
<path class="st0" d="M0,0h24v24H0V0z"/>
<g>
	<polygon points="20,4 20,1 18,1 18,4 15,4 15,6 18,6 18,9 20,9 20,6 23,6 23,4 	"/>
	<path d="M9.9,16c-2.7,0-8,1.3-8,4v2h16v-2C17.9,17.3,12.6,16,9.9,16z M3.9,20c0.2-0.7,3.3-2,6-2c2.7,0,5.8,1.3,6,2H3.9z"/>
	<path d="M9.9,14c2.2,0,4-1.8,4-4s-1.8-4-4-4c-2.2,0-4,1.8-4,4S7.7,14,9.9,14z M9.9,8c1.1,0,2,0.9,2,2s-0.9,2-2,2c-1.1,0-2-0.9-2-2
		S8.8,8,9.9,8z"/>
</g>
</svg>
