<?xml version="1.0" encoding="utf-8"?>
<!-- Generator: Adobe Illustrator 23.0.1, SVG Export Plug-In . SVG Version: 6.00 Build 0)  -->
<svg version="1.1" id="Ebene_1" xmlns="http://www.w3.org/2000/svg" xmlns:xlink="http://www.w3.org/1999/xlink" x="0px" y="0px"
	 width="24px" height="24px" viewBox="0 0 24 24" style="enable-background:new 0 0 24 24;" xml:space="preserve">
<style type="text/css">
	.st0{fill:none;}
	.st1{clip-path:url(#SVGID_2_);}
</style>
<path class="st0" d="M0,0h24v24H0V0z"/>
<path d="M20,4V1h-2v3h-3v2h3v3h2V6h3V4H20z"/>
<g>
	<defs>
		<rect id="SVGID_1_" x="1.9" y="4" width="18" height="18"/>
	</defs>
	<clipPath id="SVGID_2_">
		<use xlink:href="#SVGID_1_"  style="overflow:visible;"/>
	</clipPath>
	<path class="st1" d="M12.9,4h-9c-1.1,0-2,0.9-2,2v14c0,1.1,0.9,2,2,2h14c1.1,0,2-0.9,2-2v-9h-2v9h-14V6h9V4z M8.9,11h4v4h-4V11z
		 M6.9,17h8V9h-2v0h-6V17z"/>
</g>
</svg>
