<?xml version="1.0" encoding="utf-8"?>
<!-- Generator: Adobe Illustrator 23.0.1, SVG Export Plug-In . SVG Version: 6.00 Build 0)  -->
<svg fill="#fff" version="1.1" id="Ebene_1" xmlns="http://www.w3.org/2000/svg" xmlns:xlink="http://www.w3.org/1999/xlink" x="0px" y="0px"
	 width="24px" height="24px" viewBox="0 0 24 24" style="enable-background:new 0 0 24 24;" xml:space="preserve">
<style type="text/css">
	.st0{fill:none;}
</style>
<path class="st0" d="M0,0h24v24H0V0z"/>
<path d="M20,4V1h-2v3h-3c0,0,0,2,0,2h3v3c0,0,2,0,2,0V6h3V4H20z"/>
<path d="M12,7l7.5,13H4.5L12,7 M12,3L1,22h22L12,3z M13,17h-2v2h2V17z M13,11h-2v4h2V11z"/>
</svg>
